<?xml version="1.0" encoding="UTF-8"?>
<!DOCTYPE svg PUBLIC "-//W3C//DTD SVG 1.1//EN" "http://www.w3.org/Graphics/SVG/1.1/DTD/svg11.dtd">
<!-- Creator: CorelDRAW 2017 -->
<svg xmlns="http://www.w3.org/2000/svg" xml:space="preserve" width="1.46333in" height="1.46235in" version="1.1" style="shape-rendering:geometricPrecision; text-rendering:geometricPrecision; image-rendering:optimizeQuality; fill-rule:evenodd; clip-rule:evenodd"
viewBox="0 0 983 983"
 xmlns:xlink="http://www.w3.org/1999/xlink">
 <defs>
  <style type="text/css">
   <![CDATA[
    .fil0 {fill:#fafafa}
   ]]>
  </style>
 </defs>
 <g id="Layer_x0020_1">
  <metadata id="CorelCorpID_0Corel-Layer"/>
  <path class="fil0" d="M547 0c97,11 185,49 257,108l-159 157c-21,21 -21,55 -1,76l0 0c21,21 55,21 76,1l159 -157c57,72 95,161 104,259l-223 -3c-30,0 -54,23 -54,53l0 0c0,30 23,54 53,55l223 3c-30,244 -237,432 -489,432 -118,0 -226,-41 -311,-111l159 -157c21,-21 21,-55 1,-76l0 0c-21,-21 -55,-21 -76,-1l-159 157c-67,-84 -106,-190 -106,-306 0,-120 43,-231 115,-316l155 161c20,21 55,22 76,2l0 0c21,-20 22,-55 2,-76l-155 -161c70,-54 154,-89 247,-99l0 223c0,30 24,54 54,54l0 0c30,0 54,-24 54,-54l0 -223z"/>
 </g>
</svg>
